<svg xmlns="http://www.w3.org/2000/svg" xmlns:xlink="http://www.w3.org/1999/xlink" width="500" zoomAndPan="magnify" viewBox="0 0 375 374.999991" height="500" preserveAspectRatio="xMidYMid meet" version="1.0"><defs><g/><clipPath id="79605ede1c"><path d="M 93.398438 69 L 132 69 L 132 222 L 93.398438 222 Z M 93.398438 69 " clip-rule="nonzero"/></clipPath><clipPath id="48a234b50d"><path d="M 140 51.671875 L 232 51.671875 L 232 239 L 140 239 Z M 140 51.671875 " clip-rule="nonzero"/></clipPath><clipPath id="a9f5065d95"><path d="M 205 173 L 273 173 L 273 251 L 205 251 Z M 205 173 " clip-rule="nonzero"/></clipPath><clipPath id="10d356d7c7"><path d="M 229.160156 172.023438 L 274.554688 233.914062 L 248.328125 253.148438 L 202.933594 191.257812 Z M 229.160156 172.023438 " clip-rule="nonzero"/></clipPath><clipPath id="53cf6fd85d"><path d="M 229.160156 172.023438 L 274.554688 233.914062 L 248.328125 253.148438 L 202.933594 191.257812 Z M 229.160156 172.023438 " clip-rule="nonzero"/></clipPath><clipPath id="4326b5a51d"><path d="M 229.007812 172.132812 L 274.140625 233.667969 L 248.707031 252.324219 L 203.574219 190.785156 Z M 229.007812 172.132812 " clip-rule="nonzero"/></clipPath><clipPath id="726c5eda4f"><path d="M 205 174 L 272 174 L 272 251 L 205 251 Z M 205 174 " clip-rule="nonzero"/></clipPath><clipPath id="f4c3d5ce1f"><path d="M 229.160156 172.023438 L 274.554688 233.914062 L 248.328125 253.148438 L 202.933594 191.257812 Z M 229.160156 172.023438 " clip-rule="nonzero"/></clipPath><clipPath id="17f7bd94eb"><path d="M 229.160156 172.023438 L 274.554688 233.914062 L 248.328125 253.148438 L 202.933594 191.257812 Z M 229.160156 172.023438 " clip-rule="nonzero"/></clipPath><clipPath id="6cd8097d5a"><path d="M 229.007812 172.132812 L 273.96875 233.433594 L 248.535156 252.089844 L 203.574219 190.785156 Z M 229.007812 172.132812 " clip-rule="nonzero"/></clipPath><clipPath id="e95887b622"><path d="M 206 174 L 272 174 L 272 250 L 206 250 Z M 206 174 " clip-rule="nonzero"/></clipPath><clipPath id="0fd8052096"><path d="M 229.160156 172.023438 L 274.554688 233.914062 L 248.328125 253.148438 L 202.933594 191.257812 Z M 229.160156 172.023438 " clip-rule="nonzero"/></clipPath><clipPath id="34fc845b9b"><path d="M 229.160156 172.023438 L 274.554688 233.914062 L 248.328125 253.148438 L 202.933594 191.257812 Z M 229.160156 172.023438 " clip-rule="nonzero"/></clipPath></defs><g clip-path="url(#79605ede1c)"><path fill="#ffffff" d="M 100.78125 109.140625 C 95.871094 120.75 93.382812 133.074219 93.382812 145.769531 C 93.382812 158.46875 95.871094 170.792969 100.78125 182.402344 C 105.519531 193.609375 112.300781 203.667969 120.941406 212.308594 C 124.402344 215.769531 128.09375 218.925781 131.992188 221.777344 L 131.992188 188.367188 C 122.910156 176.558594 117.496094 161.785156 117.496094 145.769531 C 117.496094 129.757812 122.910156 114.984375 131.992188 103.175781 L 131.992188 69.761719 C 128.09375 72.617188 124.402344 75.773438 120.941406 79.234375 C 112.300781 87.871094 105.519531 97.933594 100.78125 109.140625 " fill-opacity="1" fill-rule="nonzero"/></g><path fill="#ffffff" d="M 274.175781 109.140625 C 269.433594 97.933594 262.652344 87.871094 254.011719 79.234375 C 249.660156 74.882812 244.945312 71.003906 239.910156 67.617188 L 239.910156 99.480469 C 250.824219 111.824219 257.457031 128.035156 257.457031 145.769531 C 257.457031 184.359375 226.0625 215.75 187.476562 215.75 C 184.371094 215.75 181.3125 215.542969 178.3125 215.152344 L 178.3125 239.425781 C 181.34375 239.71875 184.398438 239.867188 187.476562 239.867188 C 200.175781 239.867188 212.5 237.378906 224.109375 232.46875 C 235.3125 227.730469 245.375 220.945312 254.011719 212.308594 C 262.652344 203.667969 269.433594 193.609375 274.175781 182.402344 C 279.085938 170.792969 281.574219 158.46875 281.574219 145.769531 C 281.574219 133.074219 279.085938 120.75 274.175781 109.140625 " fill-opacity="1" fill-rule="nonzero"/><g clip-path="url(#48a234b50d)"><path fill="#f68712" d="M 169.988281 78.011719 C 175.582031 76.566406 181.4375 75.792969 187.476562 75.792969 C 204.292969 75.792969 219.742188 81.753906 231.820312 91.675781 L 231.820312 62.761719 C 229.316406 61.421875 226.746094 60.1875 224.109375 59.074219 C 212.5 54.164062 200.175781 51.675781 187.476562 51.675781 C 174.777344 51.675781 162.457031 54.164062 150.847656 59.074219 C 147.125 60.648438 143.539062 62.449219 140.082031 64.464844 L 140.082031 227.078125 C 143.539062 229.09375 147.125 230.894531 150.847656 232.46875 C 157.113281 235.121094 163.59375 237.058594 170.230469 238.289062 L 170.230469 213.597656 C 170.148438 213.578125 170.066406 213.554688 169.988281 213.535156 L 169.988281 152.949219 L 231.820312 152.949219 L 231.820312 124.6875 L 169.988281 124.6875 L 169.988281 78.011719 " fill-opacity="1" fill-rule="nonzero"/></g><g clip-path="url(#a9f5065d95)"><g clip-path="url(#10d356d7c7)"><g clip-path="url(#53cf6fd85d)"><g clip-path="url(#4326b5a51d)"><path fill="#ffffff" d="M 270.421875 236.398438 C 271.410156 235.675781 272.066406 234.589844 272.253906 233.378906 C 272.4375 232.171875 272.136719 230.9375 271.414062 229.949219 C 263.875 219.671875 239.273438 186.128906 231.734375 175.851562 C 231.011719 174.867188 229.925781 174.207031 228.71875 174.019531 C 227.507812 173.835938 226.277344 174.136719 225.289062 174.863281 C 220.671875 178.246094 211.910156 184.671875 207.296875 188.058594 C 206.308594 188.78125 205.652344 189.867188 205.460938 191.078125 C 205.277344 192.285156 205.582031 193.519531 206.304688 194.507812 L 245.980469 248.601562 C 246.703125 249.589844 247.792969 250.25 249 250.433594 C 250.210938 250.621094 251.445312 250.320312 252.429688 249.597656 C 257.046875 246.210938 265.804688 239.785156 270.421875 236.398438 " fill-opacity="1" fill-rule="evenodd"/></g></g></g></g><g clip-path="url(#726c5eda4f)"><g clip-path="url(#f4c3d5ce1f)"><g clip-path="url(#17f7bd94eb)"><g clip-path="url(#6cd8097d5a)"><path fill="#ffffff" d="M 270.15625 236.035156 C 271.046875 235.382812 271.640625 234.402344 271.808594 233.308594 C 271.976562 232.21875 271.703125 231.105469 271.050781 230.214844 C 263.511719 219.9375 238.914062 186.394531 231.375 176.117188 C 230.722656 175.226562 229.742188 174.636719 228.648438 174.464844 C 227.558594 174.296875 226.445312 174.570312 225.554688 175.222656 C 220.9375 178.609375 212.175781 185.035156 207.558594 188.421875 C 206.667969 189.074219 206.078125 190.050781 205.90625 191.144531 C 205.742188 192.238281 206.011719 193.351562 206.664062 194.242188 L 246.339844 248.335938 C 246.996094 249.226562 247.976562 249.824219 249.066406 249.992188 C 250.160156 250.15625 251.273438 249.886719 252.164062 249.230469 C 256.777344 245.847656 265.539062 239.421875 270.15625 236.035156 Z M 269.664062 235.363281 L 251.671875 248.5625 C 250.957031 249.082031 250.066406 249.300781 249.195312 249.164062 C 248.320312 249.035156 247.535156 248.558594 247.011719 247.84375 C 239.476562 237.566406 214.875 204.027344 207.335938 193.75 C 206.8125 193.035156 206.597656 192.144531 206.730469 191.273438 C 206.867188 190.398438 207.339844 189.613281 208.050781 189.089844 C 212.667969 185.707031 221.429688 179.28125 226.046875 175.894531 C 226.757812 175.371094 227.648438 175.15625 228.523438 175.289062 C 229.394531 175.425781 230.179688 175.898438 230.703125 176.609375 C 238.242188 186.886719 262.839844 220.429688 270.378906 230.707031 C 270.902344 231.417969 271.121094 232.3125 270.984375 233.183594 C 270.851562 234.058594 270.375 234.839844 269.664062 235.363281 " fill-opacity="1" fill-rule="evenodd"/></g></g></g></g><g clip-path="url(#e95887b622)"><g clip-path="url(#0fd8052096)"><g clip-path="url(#34fc845b9b)"><path fill="#ffffff" d="M 269.910156 235.699219 C 270.710938 235.113281 271.246094 234.230469 271.398438 233.25 C 271.546875 232.265625 271.300781 231.261719 270.714844 230.460938 C 263.175781 220.183594 238.574219 186.644531 231.039062 176.367188 C 230.449219 175.5625 229.566406 175.027344 228.585938 174.878906 C 227.605469 174.726562 226.601562 174.972656 225.800781 175.558594 C 221.183594 178.945312 212.425781 185.371094 207.808594 188.757812 C 207.003906 189.34375 206.46875 190.226562 206.320312 191.207031 C 206.167969 192.191406 206.414062 193.191406 207.003906 193.992188 C 214.539062 204.269531 239.140625 237.8125 246.679688 248.089844 C 247.265625 248.890625 248.148438 249.425781 249.132812 249.578125 C 250.113281 249.730469 251.117188 249.484375 251.917969 248.898438 C 256.535156 245.511719 265.292969 239.085938 269.910156 235.699219 " fill-opacity="1" fill-rule="evenodd"/></g></g></g><g fill="#ffffff" fill-opacity="1"><g transform="translate(10.078472, 305.743455)"><g><path d="M 2.609375 0 L 2.609375 -35.203125 L 28.765625 -35.203125 L 28.765625 -25.046875 L 14.234375 -25.046875 L 14.234375 -20.71875 L 27.3125 -20.71875 L 27.3125 -10.8125 L 14.234375 -10.8125 L 14.234375 0 Z M 2.609375 0 "/></g></g></g><g fill="#ffffff" fill-opacity="1"><g transform="translate(51.877985, 305.743455)"><g><path d="M 18.65625 0.8125 C 16.582031 0.8125 14.5625 0.554688 12.59375 0.046875 C 10.632812 -0.453125 8.875 -1.253906 7.3125 -2.359375 C 5.757812 -3.472656 4.53125 -4.957031 3.625 -6.8125 C 2.71875 -8.675781 2.265625 -10.96875 2.265625 -13.6875 L 2.265625 -35.203125 L 13.875 -35.203125 L 13.875 -14.234375 C 13.875 -12.617188 14.285156 -11.453125 15.109375 -10.734375 C 15.929688 -10.015625 17.113281 -9.65625 18.65625 -9.65625 C 20.164062 -9.65625 21.332031 -10.015625 22.15625 -10.734375 C 22.976562 -11.453125 23.390625 -12.617188 23.390625 -14.234375 L 23.390625 -35.203125 L 35 -35.203125 L 35 -13.6875 C 35 -10.96875 34.546875 -8.675781 33.640625 -6.8125 C 32.742188 -4.957031 31.519531 -3.472656 29.96875 -2.359375 C 28.425781 -1.253906 26.675781 -0.453125 24.71875 0.046875 C 22.757812 0.554688 20.738281 0.8125 18.65625 0.8125 Z M 18.65625 0.8125 "/></g></g></g><g fill="#ffffff" fill-opacity="1"><g transform="translate(100.718864, 305.743455)"><g><path d="M 2.609375 0 L 2.609375 -35.203125 L 12.46875 -35.203125 L 24.34375 -18.703125 C 24.207031 -19.773438 24.128906 -20.804688 24.109375 -21.796875 C 24.097656 -22.785156 24.09375 -23.753906 24.09375 -24.703125 L 24.09375 -35.203125 L 35.703125 -35.203125 L 35.703125 0 L 25.859375 0 L 13.984375 -16.5 C 14.117188 -15.425781 14.191406 -14.394531 14.203125 -13.40625 C 14.222656 -12.414062 14.234375 -11.453125 14.234375 -10.515625 L 14.234375 0 Z M 2.609375 0 "/></g></g></g><g fill="#ffffff" fill-opacity="1"><g transform="translate(150.615955, 305.743455)"><g><path d="M 32.640625 2.515625 L 29.21875 -0.90625 C 26.632812 0.238281 23.648438 0.8125 20.265625 0.8125 C 17.078125 0.8125 14.289062 0.332031 11.90625 -0.625 C 9.53125 -1.582031 7.546875 -2.90625 5.953125 -4.59375 C 4.367188 -6.289062 3.179688 -8.253906 2.390625 -10.484375 C 1.597656 -12.710938 1.203125 -15.085938 1.203125 -17.609375 C 1.203125 -20.117188 1.597656 -22.488281 2.390625 -24.71875 C 3.179688 -26.945312 4.367188 -28.90625 5.953125 -30.59375 C 7.546875 -32.289062 9.53125 -33.617188 11.90625 -34.578125 C 14.289062 -35.535156 17.078125 -36.015625 20.265625 -36.015625 C 23.453125 -36.015625 26.234375 -35.535156 28.609375 -34.578125 C 30.992188 -33.617188 32.972656 -32.289062 34.546875 -30.59375 C 36.128906 -28.90625 37.320312 -26.945312 38.125 -24.71875 C 38.925781 -22.488281 39.328125 -20.117188 39.328125 -17.609375 C 39.328125 -15.554688 39.066406 -13.59375 38.546875 -11.71875 C 38.023438 -9.84375 37.226562 -8.132812 36.15625 -6.59375 L 39.328125 -3.421875 Z M 20.265625 -9.453125 C 20.429688 -9.453125 20.597656 -9.453125 20.765625 -9.453125 C 20.941406 -9.453125 21.09375 -9.46875 21.21875 -9.5 L 18.25 -12.46875 L 24.046875 -18.203125 L 27.3125 -14.984375 C 27.414062 -15.390625 27.5 -15.8125 27.5625 -16.25 C 27.625 -16.6875 27.65625 -17.140625 27.65625 -17.609375 C 27.65625 -20.191406 26.984375 -22.203125 25.640625 -23.640625 C 24.304688 -25.078125 22.515625 -25.796875 20.265625 -25.796875 C 18.023438 -25.796875 16.234375 -25.078125 14.890625 -23.640625 C 13.546875 -22.203125 12.875 -20.191406 12.875 -17.609375 C 12.875 -15.054688 13.546875 -13.054688 14.890625 -11.609375 C 16.234375 -10.171875 18.023438 -9.453125 20.265625 -9.453125 Z M 20.265625 -9.453125 "/></g></g></g><g fill="#ffffff" fill-opacity="1"><g transform="translate(202.726025, 305.743455)"><g><path d="M 10.0625 0 L 10.0625 -25.046875 L 0.609375 -25.046875 L 0.609375 -35.203125 L 31.078125 -35.203125 L 31.078125 -25.046875 L 21.671875 -25.046875 L 21.671875 0 Z M 10.0625 0 "/></g></g></g><g fill="#ffffff" fill-opacity="1"><g transform="translate(245.984095, 305.743455)"><g><path d="M 2.609375 0 L 2.609375 -35.203125 L 14.234375 -35.203125 L 14.234375 0 Z M 2.609375 0 "/></g></g></g><g fill="#ffffff" fill-opacity="1"><g transform="translate(274.455309, 305.743455)"><g><path d="M 20.265625 0.8125 C 17.078125 0.8125 14.289062 0.332031 11.90625 -0.625 C 9.53125 -1.582031 7.546875 -2.90625 5.953125 -4.59375 C 4.367188 -6.289062 3.179688 -8.253906 2.390625 -10.484375 C 1.597656 -12.710938 1.203125 -15.085938 1.203125 -17.609375 C 1.203125 -20.117188 1.597656 -22.488281 2.390625 -24.71875 C 3.179688 -26.945312 4.367188 -28.90625 5.953125 -30.59375 C 7.546875 -32.289062 9.53125 -33.617188 11.90625 -34.578125 C 14.289062 -35.535156 17.078125 -36.015625 20.265625 -36.015625 C 23.453125 -36.015625 26.234375 -35.535156 28.609375 -34.578125 C 30.992188 -33.617188 32.972656 -32.289062 34.546875 -30.59375 C 36.128906 -28.90625 37.320312 -26.945312 38.125 -24.71875 C 38.925781 -22.488281 39.328125 -20.117188 39.328125 -17.609375 C 39.328125 -15.085938 38.925781 -12.710938 38.125 -10.484375 C 37.320312 -8.253906 36.128906 -6.289062 34.546875 -4.59375 C 32.972656 -2.90625 30.992188 -1.582031 28.609375 -0.625 C 26.234375 0.332031 23.453125 0.8125 20.265625 0.8125 Z M 20.265625 -9.75 C 22.515625 -9.75 24.257812 -10.453125 25.5 -11.859375 C 26.738281 -13.273438 27.359375 -15.191406 27.359375 -17.609375 C 27.359375 -20.015625 26.738281 -21.921875 25.5 -23.328125 C 24.257812 -24.742188 22.515625 -25.453125 20.265625 -25.453125 C 18.023438 -25.453125 16.273438 -24.742188 15.015625 -23.328125 C 13.753906 -21.921875 13.125 -20.015625 13.125 -17.609375 C 13.125 -15.191406 13.753906 -13.273438 15.015625 -11.859375 C 16.273438 -10.453125 18.023438 -9.75 20.265625 -9.75 Z M 20.265625 -9.75 "/></g></g></g><g fill="#ffffff" fill-opacity="1"><g transform="translate(326.565379, 305.743455)"><g><path d="M 2.609375 0 L 2.609375 -35.203125 L 12.46875 -35.203125 L 24.34375 -18.703125 C 24.207031 -19.773438 24.128906 -20.804688 24.109375 -21.796875 C 24.097656 -22.785156 24.09375 -23.753906 24.09375 -24.703125 L 24.09375 -35.203125 L 35.703125 -35.203125 L 35.703125 0 L 25.859375 0 L 13.984375 -16.5 C 14.117188 -15.425781 14.191406 -14.394531 14.203125 -13.40625 C 14.222656 -12.414062 14.234375 -11.453125 14.234375 -10.515625 L 14.234375 0 Z M 2.609375 0 "/></g></g></g><g fill="#ffffff" fill-opacity="1"><g transform="translate(97.277127, 332.75433)"><g><path d="M 2.78125 -9.4375 L 2.78125 -5.359375 L 8.15625 -5.359375 L 8.15625 -4.40625 L 2.78125 -4.40625 L 2.78125 0 L 1.6875 0 L 1.6875 -10.375 L 8.8125 -10.375 L 8.8125 -9.4375 Z M 2.78125 -9.4375 "/></g></g></g><g fill="#ffffff" fill-opacity="1"><g transform="translate(110.683643, 332.75433)"><g><path d="M 9.03125 -0.953125 L 9.03125 0 L 1.6875 0 L 1.6875 -10.375 L 8.8125 -10.375 L 8.8125 -9.4375 L 2.78125 -9.4375 L 2.78125 -5.734375 L 8.15625 -5.734375 L 8.15625 -4.796875 L 2.78125 -4.796875 L 2.78125 -0.953125 Z M 9.03125 -0.953125 "/></g></g></g><g fill="#ffffff" fill-opacity="1"><g transform="translate(124.624052, 332.75433)"><g><path d="M 9.03125 -0.953125 L 9.03125 0 L 1.6875 0 L 1.6875 -10.375 L 8.8125 -10.375 L 8.8125 -9.4375 L 2.78125 -9.4375 L 2.78125 -5.734375 L 8.15625 -5.734375 L 8.15625 -4.796875 L 2.78125 -4.796875 L 2.78125 -0.953125 Z M 9.03125 -0.953125 "/></g></g></g><g fill="#ffffff" fill-opacity="1"><g transform="translate(138.564462, 332.75433)"><g><path d="M 1.6875 -10.375 L 2.78125 -10.375 L 2.78125 -0.953125 L 8.59375 -0.953125 L 8.59375 0 L 1.6875 0 Z M 1.6875 -10.375 "/></g></g></g><g fill="#ffffff" fill-opacity="1"><g transform="translate(151.318451, 332.75433)"><g/></g></g><g fill="#ffffff" fill-opacity="1"><g transform="translate(159.22295, 332.75433)"><g><path d="M 3.703125 -9.4375 L 0.0625 -9.4375 L 0.0625 -10.375 L 8.453125 -10.375 L 8.453125 -9.4375 L 4.796875 -9.4375 L 4.796875 0 L 3.703125 0 Z M 3.703125 -9.4375 "/></g></g></g><g fill="#ffffff" fill-opacity="1"><g transform="translate(171.754476, 332.75433)"><g><path d="M 10.359375 -10.375 L 10.359375 0 L 9.28125 0 L 9.28125 -4.796875 L 2.78125 -4.796875 L 2.78125 0 L 1.6875 0 L 1.6875 -10.375 L 2.78125 -10.375 L 2.78125 -5.75 L 9.28125 -5.75 L 9.28125 -10.375 Z M 10.359375 -10.375 "/></g></g></g><g fill="#ffffff" fill-opacity="1"><g transform="translate(187.830444, 332.75433)"><g><path d="M 9.03125 -0.953125 L 9.03125 0 L 1.6875 0 L 1.6875 -10.375 L 8.8125 -10.375 L 8.8125 -9.4375 L 2.78125 -9.4375 L 2.78125 -5.734375 L 8.15625 -5.734375 L 8.15625 -4.796875 L 2.78125 -4.796875 L 2.78125 -0.953125 Z M 9.03125 -0.953125 "/></g></g></g><g fill="#ffffff" fill-opacity="1"><g transform="translate(201.770852, 332.75433)"><g/></g></g><g fill="#ffffff" fill-opacity="1"><g transform="translate(209.675351, 332.75433)"><g><path d="M 12.46875 -10.375 L 12.46875 0 L 11.421875 0 L 11.421875 -8.296875 L 7.34375 -1.3125 L 6.828125 -1.3125 L 2.75 -8.265625 L 2.75 0 L 1.6875 0 L 1.6875 -10.375 L 2.59375 -10.375 L 7.109375 -2.6875 L 11.5625 -10.375 Z M 12.46875 -10.375 "/></g></g></g><g fill="#ffffff" fill-opacity="1"><g transform="translate(227.857207, 332.75433)"><g><path d="M 5.875 0.09375 C 4.53125 0.09375 3.476562 -0.289062 2.71875 -1.0625 C 1.96875 -1.832031 1.59375 -2.957031 1.59375 -4.4375 L 1.59375 -10.375 L 2.703125 -10.375 L 2.703125 -4.484375 C 2.703125 -3.273438 2.972656 -2.375 3.515625 -1.78125 C 4.054688 -1.1875 4.84375 -0.890625 5.875 -0.890625 C 6.90625 -0.890625 7.691406 -1.1875 8.234375 -1.78125 C 8.785156 -2.375 9.0625 -3.273438 9.0625 -4.484375 L 9.0625 -10.375 L 10.125 -10.375 L 10.125 -4.4375 C 10.125 -2.957031 9.75 -1.832031 9 -1.0625 C 8.257812 -0.289062 7.21875 0.09375 5.875 0.09375 Z M 5.875 0.09375 "/></g></g></g><g fill="#ffffff" fill-opacity="1"><g transform="translate(243.621739, 332.75433)"><g><path d="M 4.546875 0.09375 C 3.773438 0.09375 3.035156 -0.03125 2.328125 -0.28125 C 1.628906 -0.53125 1.085938 -0.859375 0.703125 -1.265625 L 1.125 -2.109375 C 1.5 -1.734375 2 -1.425781 2.625 -1.1875 C 3.25 -0.957031 3.890625 -0.84375 4.546875 -0.84375 C 5.484375 -0.84375 6.179688 -1.015625 6.640625 -1.359375 C 7.109375 -1.703125 7.34375 -2.144531 7.34375 -2.6875 C 7.34375 -3.101562 7.210938 -3.429688 6.953125 -3.671875 C 6.703125 -3.921875 6.394531 -4.113281 6.03125 -4.25 C 5.664062 -4.382812 5.15625 -4.53125 4.5 -4.6875 C 3.726562 -4.882812 3.109375 -5.070312 2.640625 -5.25 C 2.171875 -5.4375 1.769531 -5.71875 1.4375 -6.09375 C 1.113281 -6.46875 0.953125 -6.976562 0.953125 -7.625 C 0.953125 -8.144531 1.085938 -8.617188 1.359375 -9.046875 C 1.640625 -9.484375 2.066406 -9.828125 2.640625 -10.078125 C 3.210938 -10.335938 3.925781 -10.46875 4.78125 -10.46875 C 5.375 -10.46875 5.953125 -10.382812 6.515625 -10.21875 C 7.085938 -10.0625 7.582031 -9.835938 8 -9.546875 L 7.625 -8.671875 C 7.1875 -8.960938 6.71875 -9.175781 6.21875 -9.3125 C 5.726562 -9.457031 5.25 -9.53125 4.78125 -9.53125 C 3.863281 -9.53125 3.175781 -9.351562 2.71875 -9 C 2.257812 -8.65625 2.03125 -8.207031 2.03125 -7.65625 C 2.03125 -7.238281 2.15625 -6.898438 2.40625 -6.640625 C 2.65625 -6.390625 2.96875 -6.195312 3.34375 -6.0625 C 3.726562 -5.9375 4.242188 -5.796875 4.890625 -5.640625 C 5.648438 -5.453125 6.265625 -5.265625 6.734375 -5.078125 C 7.203125 -4.890625 7.597656 -4.609375 7.921875 -4.234375 C 8.253906 -3.867188 8.421875 -3.375 8.421875 -2.75 C 8.421875 -2.21875 8.28125 -1.738281 8 -1.3125 C 7.71875 -0.882812 7.285156 -0.539062 6.703125 -0.28125 C 6.117188 -0.03125 5.398438 0.09375 4.546875 0.09375 Z M 4.546875 0.09375 "/></g></g></g><g fill="#ffffff" fill-opacity="1"><g transform="translate(256.761316, 332.75433)"><g><path d="M 1.6875 -10.375 L 2.78125 -10.375 L 2.78125 0 L 1.6875 0 Z M 1.6875 -10.375 "/></g></g></g><g fill="#ffffff" fill-opacity="1"><g transform="translate(265.259015, 332.75433)"><g><path d="M 12.140625 0.875 C 11.828125 1.257812 11.453125 1.550781 11.015625 1.75 C 10.585938 1.957031 10.125 2.0625 9.625 2.0625 C 9.007812 2.0625 8.425781 1.910156 7.875 1.609375 C 7.332031 1.304688 6.71875 0.800781 6.03125 0.09375 C 5.03125 0.0625 4.128906 -0.179688 3.328125 -0.640625 C 2.535156 -1.109375 1.910156 -1.738281 1.453125 -2.53125 C 0.992188 -3.320312 0.765625 -4.207031 0.765625 -5.1875 C 0.765625 -6.1875 1 -7.085938 1.46875 -7.890625 C 1.945312 -8.691406 2.601562 -9.320312 3.4375 -9.78125 C 4.269531 -10.238281 5.203125 -10.46875 6.234375 -10.46875 C 7.253906 -10.46875 8.175781 -10.238281 9 -9.78125 C 9.832031 -9.332031 10.484375 -8.703125 10.953125 -7.890625 C 11.429688 -7.085938 11.671875 -6.1875 11.671875 -5.1875 C 11.671875 -4.320312 11.488281 -3.523438 11.125 -2.796875 C 10.769531 -2.066406 10.265625 -1.457031 9.609375 -0.96875 C 8.960938 -0.488281 8.222656 -0.171875 7.390625 -0.015625 C 8.148438 0.785156 8.898438 1.1875 9.640625 1.1875 C 10.410156 1.1875 11.066406 0.867188 11.609375 0.234375 Z M 1.859375 -5.1875 C 1.859375 -4.375 2.046875 -3.640625 2.421875 -2.984375 C 2.804688 -2.335938 3.332031 -1.828125 4 -1.453125 C 4.664062 -1.078125 5.410156 -0.890625 6.234375 -0.890625 C 7.046875 -0.890625 7.785156 -1.078125 8.453125 -1.453125 C 9.117188 -1.828125 9.640625 -2.335938 10.015625 -2.984375 C 10.390625 -3.640625 10.578125 -4.375 10.578125 -5.1875 C 10.578125 -6 10.390625 -6.726562 10.015625 -7.375 C 9.640625 -8.03125 9.117188 -8.546875 8.453125 -8.921875 C 7.785156 -9.296875 7.046875 -9.484375 6.234375 -9.484375 C 5.410156 -9.484375 4.664062 -9.296875 4 -8.921875 C 3.332031 -8.546875 2.804688 -8.03125 2.421875 -7.375 C 2.046875 -6.726562 1.859375 -6 1.859375 -5.1875 Z M 1.859375 -5.1875 "/></g></g></g></svg>