<svg xmlns="http://www.w3.org/2000/svg" xmlns:xlink="http://www.w3.org/1999/xlink" width="500" zoomAndPan="magnify" viewBox="0 0 375 374.999991" height="500" preserveAspectRatio="xMidYMid meet" version="1.0"><defs><g/><clipPath id="586728ce42"><path d="M 133.25 115 L 156 115 L 156 204 L 133.25 204 Z M 133.25 115 " clip-rule="nonzero"/></clipPath><clipPath id="72518337d3"><path d="M 182 114 L 242 114 L 242 213.859375 L 182 213.859375 Z M 182 114 " clip-rule="nonzero"/></clipPath><clipPath id="bed63d4190"><path d="M 160 105.109375 L 214 105.109375 L 214 213 L 160 213 Z M 160 105.109375 " clip-rule="nonzero"/></clipPath><clipPath id="19958932c6"><path d="M 197 175 L 237 175 L 237 220 L 197 220 Z M 197 175 " clip-rule="nonzero"/></clipPath><clipPath id="6db4defc45"><path d="M 211.515625 174.492188 L 237.6875 210.171875 L 222.566406 221.261719 L 196.398438 185.582031 Z M 211.515625 174.492188 " clip-rule="nonzero"/></clipPath><clipPath id="56450986ee"><path d="M 211.515625 174.492188 L 237.6875 210.171875 L 222.566406 221.261719 L 196.398438 185.582031 Z M 211.515625 174.492188 " clip-rule="nonzero"/></clipPath><clipPath id="dbb7144244"><path d="M 211.429688 174.554688 L 237.449219 210.03125 L 222.785156 220.785156 L 196.765625 185.308594 Z M 211.429688 174.554688 " clip-rule="nonzero"/></clipPath><clipPath id="a7995bba47"><path d="M 198 175 L 237 175 L 237 220 L 198 220 Z M 198 175 " clip-rule="nonzero"/></clipPath><clipPath id="47f2abb4d7"><path d="M 211.515625 174.492188 L 237.6875 210.171875 L 222.566406 221.261719 L 196.398438 185.582031 Z M 211.515625 174.492188 " clip-rule="nonzero"/></clipPath><clipPath id="caef2952c8"><path d="M 211.515625 174.492188 L 237.6875 210.171875 L 222.566406 221.261719 L 196.398438 185.582031 Z M 211.515625 174.492188 " clip-rule="nonzero"/></clipPath><clipPath id="cd0b954670"><path d="M 211.429688 174.554688 L 237.351562 209.894531 L 222.6875 220.648438 L 196.765625 185.308594 Z M 211.429688 174.554688 " clip-rule="nonzero"/></clipPath><clipPath id="247454b3e6"><path d="M 198 176 L 236 176 L 236 220 L 198 220 Z M 198 176 " clip-rule="nonzero"/></clipPath><clipPath id="2d1ec5ad3e"><path d="M 211.515625 174.492188 L 237.6875 210.171875 L 222.566406 221.261719 L 196.398438 185.582031 Z M 211.515625 174.492188 " clip-rule="nonzero"/></clipPath><clipPath id="38f5cafd25"><path d="M 211.515625 174.492188 L 237.6875 210.171875 L 222.566406 221.261719 L 196.398438 185.582031 Z M 211.515625 174.492188 " clip-rule="nonzero"/></clipPath></defs><g clip-path="url(#586728ce42)"><path fill="#ffffff" d="M 137.503906 138.238281 C 134.675781 144.933594 133.238281 152.035156 133.238281 159.359375 C 133.238281 166.679688 134.675781 173.78125 137.503906 180.476562 C 140.238281 186.9375 144.148438 192.738281 149.128906 197.714844 C 151.125 199.710938 153.25 201.53125 155.5 203.175781 L 155.5 183.914062 C 150.261719 177.109375 147.144531 168.589844 147.144531 159.359375 C 147.144531 150.125 150.261719 141.609375 155.5 134.800781 L 155.5 115.539062 C 153.25 117.183594 151.125 119.003906 149.128906 121 C 144.148438 125.976562 140.238281 131.78125 137.503906 138.238281 " fill-opacity="1" fill-rule="nonzero"/></g><g clip-path="url(#72518337d3)"><path fill="#ffffff" d="M 237.46875 138.238281 C 234.734375 131.78125 230.824219 125.976562 225.84375 121 C 223.335938 118.492188 220.617188 116.253906 217.714844 114.300781 L 217.714844 132.671875 C 224.007812 139.789062 227.832031 149.132812 227.832031 159.359375 C 227.832031 181.601562 209.734375 199.703125 187.488281 199.703125 C 185.695312 199.703125 183.933594 199.582031 182.203125 199.355469 L 182.203125 213.351562 C 183.949219 213.519531 185.710938 213.605469 187.488281 213.605469 C 194.808594 213.605469 201.910156 212.171875 208.605469 209.339844 C 215.066406 206.605469 220.867188 202.695312 225.84375 197.714844 C 230.824219 192.738281 234.734375 186.9375 237.46875 180.476562 C 240.296875 173.78125 241.734375 166.679688 241.734375 159.359375 C 241.734375 152.035156 240.296875 144.933594 237.46875 138.238281 " fill-opacity="1" fill-rule="nonzero"/></g><g clip-path="url(#bed63d4190)"><path fill="#f68712" d="M 177.402344 120.292969 C 180.628906 119.460938 184.007812 119.015625 187.488281 119.015625 C 197.179688 119.015625 206.085938 122.453125 213.050781 128.171875 L 213.050781 111.5 C 211.605469 110.730469 210.125 110.019531 208.605469 109.375 C 201.910156 106.546875 194.808594 105.109375 187.488281 105.109375 C 180.167969 105.109375 173.0625 106.546875 166.367188 109.375 C 164.222656 110.28125 162.15625 111.324219 160.164062 112.484375 L 160.164062 206.230469 C 162.15625 207.394531 164.222656 208.433594 166.367188 209.339844 C 169.984375 210.867188 173.71875 211.984375 177.542969 212.695312 L 177.542969 198.460938 C 177.496094 198.449219 177.449219 198.4375 177.402344 198.425781 L 177.402344 163.496094 L 213.050781 163.496094 L 213.050781 147.203125 L 177.402344 147.203125 L 177.402344 120.292969 " fill-opacity="1" fill-rule="nonzero"/></g><g clip-path="url(#19958932c6)"><g clip-path="url(#6db4defc45)"><g clip-path="url(#56450986ee)"><g clip-path="url(#dbb7144244)"><path fill="#ffffff" d="M 235.304688 211.605469 C 235.875 211.1875 236.253906 210.5625 236.359375 209.863281 C 236.46875 209.167969 236.292969 208.457031 235.875 207.886719 C 231.53125 201.960938 217.347656 182.625 213.003906 176.699219 C 212.585938 176.132812 211.960938 175.753906 211.261719 175.644531 C 210.566406 175.539062 209.855469 175.710938 209.285156 176.128906 C 206.625 178.082031 201.574219 181.785156 198.910156 183.738281 C 198.34375 184.152344 197.964844 184.78125 197.855469 185.476562 C 197.75 186.175781 197.921875 186.886719 198.339844 187.453125 L 221.214844 218.640625 C 221.632812 219.210938 222.257812 219.589844 222.953125 219.695312 C 223.652344 219.804688 224.363281 219.628906 224.933594 219.214844 C 227.59375 217.261719 232.644531 213.558594 235.304688 211.605469 " fill-opacity="1" fill-rule="evenodd"/></g></g></g></g><g clip-path="url(#a7995bba47)"><g clip-path="url(#47f2abb4d7)"><g clip-path="url(#caef2952c8)"><g clip-path="url(#cd0b954670)"><path fill="#ffffff" d="M 235.152344 211.394531 C 235.664062 211.019531 236.007812 210.453125 236.105469 209.824219 C 236.203125 209.195312 236.042969 208.554688 235.667969 208.039062 C 231.320312 202.113281 217.140625 182.777344 212.792969 176.851562 C 212.417969 176.339844 211.851562 175.996094 211.222656 175.898438 C 210.59375 175.804688 209.953125 175.960938 209.4375 176.335938 C 206.777344 178.289062 201.726562 181.992188 199.066406 183.945312 C 198.550781 184.320312 198.210938 184.886719 198.113281 185.515625 C 198.015625 186.148438 198.171875 186.789062 198.550781 187.300781 L 221.421875 218.488281 C 221.800781 219 222.363281 219.34375 222.992188 219.441406 C 223.625 219.535156 224.265625 219.378906 224.777344 219.003906 C 227.441406 217.050781 232.488281 213.347656 235.152344 211.394531 Z M 234.867188 211.007812 L 224.496094 218.617188 C 224.082031 218.917969 223.570312 219.042969 223.066406 218.964844 C 222.5625 218.890625 222.109375 218.613281 221.808594 218.203125 C 217.464844 212.277344 203.28125 192.941406 198.9375 187.015625 C 198.632812 186.605469 198.507812 186.09375 198.585938 185.589844 C 198.664062 185.085938 198.9375 184.632812 199.347656 184.332031 C 202.011719 182.378906 207.058594 178.675781 209.722656 176.722656 C 210.132812 176.421875 210.644531 176.296875 211.148438 176.375 C 211.652344 176.453125 212.105469 176.726562 212.40625 177.136719 C 216.753906 183.0625 230.933594 202.398438 235.28125 208.324219 C 235.582031 208.734375 235.707031 209.25 235.628906 209.75 C 235.550781 210.253906 235.277344 210.707031 234.867188 211.007812 " fill-opacity="1" fill-rule="evenodd"/></g></g></g></g><g clip-path="url(#247454b3e6)"><g clip-path="url(#2d1ec5ad3e)"><g clip-path="url(#38f5cafd25)"><path fill="#ffffff" d="M 235.011719 211.203125 C 235.472656 210.863281 235.78125 210.355469 235.867188 209.789062 C 235.953125 209.222656 235.8125 208.644531 235.472656 208.183594 C 231.128906 202.257812 216.945312 182.921875 212.597656 176.996094 C 212.261719 176.535156 211.753906 176.222656 211.1875 176.140625 C 210.621094 176.050781 210.042969 176.191406 209.582031 176.53125 C 206.917969 178.484375 201.867188 182.1875 199.207031 184.140625 C 198.746094 184.480469 198.4375 184.988281 198.351562 185.554688 C 198.261719 186.117188 198.402344 186.695312 198.742188 187.160156 C 203.089844 193.082031 217.269531 212.421875 221.617188 218.34375 C 221.957031 218.808594 222.464844 219.117188 223.03125 219.203125 C 223.597656 219.289062 224.175781 219.148438 224.636719 218.8125 C 227.296875 216.859375 232.347656 213.15625 235.011719 211.203125 " fill-opacity="1" fill-rule="evenodd"/></g></g></g><g fill="#ffffff" fill-opacity="1"><g transform="translate(85.215299, 251.582885)"><g><path d="M 1.515625 0 L 1.515625 -20.296875 L 16.59375 -20.296875 L 16.59375 -14.4375 L 8.203125 -14.4375 L 8.203125 -11.953125 L 15.75 -11.953125 L 15.75 -6.234375 L 8.203125 -6.234375 L 8.203125 0 Z M 1.515625 0 "/></g></g></g><g fill="#ffffff" fill-opacity="1"><g transform="translate(109.312997, 251.582885)"><g><path d="M 10.765625 0.46875 C 9.566406 0.46875 8.398438 0.320312 7.265625 0.03125 C 6.128906 -0.257812 5.113281 -0.722656 4.21875 -1.359375 C 3.320312 -1.992188 2.613281 -2.847656 2.09375 -3.921875 C 1.570312 -4.992188 1.3125 -6.316406 1.3125 -7.890625 L 1.3125 -20.296875 L 8 -20.296875 L 8 -8.203125 C 8 -7.273438 8.234375 -6.601562 8.703125 -6.1875 C 9.179688 -5.769531 9.867188 -5.5625 10.765625 -5.5625 C 11.628906 -5.5625 12.296875 -5.769531 12.765625 -6.1875 C 13.242188 -6.601562 13.484375 -7.273438 13.484375 -8.203125 L 13.484375 -20.296875 L 20.1875 -20.296875 L 20.1875 -7.890625 C 20.1875 -6.316406 19.925781 -4.992188 19.40625 -3.921875 C 18.882812 -2.847656 18.175781 -1.992188 17.28125 -1.359375 C 16.394531 -0.722656 15.382812 -0.257812 14.25 0.03125 C 13.125 0.320312 11.960938 0.46875 10.765625 0.46875 Z M 10.765625 0.46875 "/></g></g></g><g fill="#ffffff" fill-opacity="1"><g transform="translate(137.470091, 251.582885)"><g><path d="M 1.515625 0 L 1.515625 -20.296875 L 7.1875 -20.296875 L 14.03125 -10.78125 C 13.957031 -11.40625 13.914062 -12 13.90625 -12.5625 C 13.894531 -13.132812 13.890625 -13.691406 13.890625 -14.234375 L 13.890625 -20.296875 L 20.59375 -20.296875 L 20.59375 0 L 14.90625 0 L 8.0625 -9.515625 C 8.132812 -8.890625 8.175781 -8.289062 8.1875 -7.71875 C 8.195312 -7.15625 8.203125 -6.601562 8.203125 -6.0625 L 8.203125 0 Z M 1.515625 0 "/></g></g></g><g fill="#ffffff" fill-opacity="1"><g transform="translate(166.236098, 251.582885)"><g><path d="M 18.828125 1.453125 L 16.84375 -0.515625 C 15.351562 0.140625 13.632812 0.46875 11.6875 0.46875 C 9.851562 0.46875 8.25 0.191406 6.875 -0.359375 C 5.5 -0.910156 4.351562 -1.675781 3.4375 -2.65625 C 2.519531 -3.632812 1.832031 -4.765625 1.375 -6.046875 C 0.925781 -7.328125 0.703125 -8.695312 0.703125 -10.15625 C 0.703125 -11.601562 0.925781 -12.96875 1.375 -14.25 C 1.832031 -15.539062 2.519531 -16.671875 3.4375 -17.640625 C 4.351562 -18.617188 5.5 -19.382812 6.875 -19.9375 C 8.25 -20.488281 9.851562 -20.765625 11.6875 -20.765625 C 13.519531 -20.765625 15.125 -20.488281 16.5 -19.9375 C 17.875 -19.382812 19.015625 -18.617188 19.921875 -17.640625 C 20.828125 -16.671875 21.507812 -15.539062 21.96875 -14.25 C 22.4375 -12.96875 22.671875 -11.601562 22.671875 -10.15625 C 22.671875 -8.96875 22.519531 -7.832031 22.21875 -6.75 C 21.925781 -5.675781 21.46875 -4.691406 20.84375 -3.796875 L 22.671875 -1.96875 Z M 11.6875 -5.453125 C 11.78125 -5.453125 11.875 -5.453125 11.96875 -5.453125 C 12.070312 -5.453125 12.160156 -5.460938 12.234375 -5.484375 L 10.53125 -7.1875 L 13.859375 -10.5 L 15.75 -8.640625 C 15.800781 -8.867188 15.847656 -9.109375 15.890625 -9.359375 C 15.929688 -9.617188 15.953125 -9.882812 15.953125 -10.15625 C 15.953125 -11.644531 15.5625 -12.800781 14.78125 -13.625 C 14.007812 -14.457031 12.976562 -14.875 11.6875 -14.875 C 10.394531 -14.875 9.359375 -14.457031 8.578125 -13.625 C 7.804688 -12.800781 7.421875 -11.644531 7.421875 -10.15625 C 7.421875 -8.6875 7.804688 -7.535156 8.578125 -6.703125 C 9.359375 -5.867188 10.394531 -5.453125 11.6875 -5.453125 Z M 11.6875 -5.453125 "/></g></g></g><g fill="#ffffff" fill-opacity="1"><g transform="translate(196.277901, 251.582885)"><g><path d="M 5.796875 0 L 5.796875 -14.4375 L 0.34375 -14.4375 L 0.34375 -20.296875 L 17.921875 -20.296875 L 17.921875 -14.4375 L 12.5 -14.4375 L 12.5 0 Z M 5.796875 0 "/></g></g></g><g fill="#ffffff" fill-opacity="1"><g transform="translate(221.216468, 251.582885)"><g><path d="M 1.515625 0 L 1.515625 -20.296875 L 8.203125 -20.296875 L 8.203125 0 Z M 1.515625 0 "/></g></g></g><g fill="#ffffff" fill-opacity="1"><g transform="translate(237.630313, 251.582885)"><g><path d="M 11.6875 0.46875 C 9.851562 0.46875 8.25 0.191406 6.875 -0.359375 C 5.5 -0.910156 4.351562 -1.675781 3.4375 -2.65625 C 2.519531 -3.632812 1.832031 -4.765625 1.375 -6.046875 C 0.925781 -7.328125 0.703125 -8.695312 0.703125 -10.15625 C 0.703125 -11.601562 0.925781 -12.96875 1.375 -14.25 C 1.832031 -15.539062 2.519531 -16.671875 3.4375 -17.640625 C 4.351562 -18.617188 5.5 -19.382812 6.875 -19.9375 C 8.25 -20.488281 9.851562 -20.765625 11.6875 -20.765625 C 13.519531 -20.765625 15.125 -20.488281 16.5 -19.9375 C 17.875 -19.382812 19.015625 -18.617188 19.921875 -17.640625 C 20.828125 -16.671875 21.507812 -15.539062 21.96875 -14.25 C 22.4375 -12.96875 22.671875 -11.601562 22.671875 -10.15625 C 22.671875 -8.695312 22.4375 -7.328125 21.96875 -6.046875 C 21.507812 -4.765625 20.828125 -3.632812 19.921875 -2.65625 C 19.015625 -1.675781 17.875 -0.910156 16.5 -0.359375 C 15.125 0.191406 13.519531 0.46875 11.6875 0.46875 Z M 11.6875 -5.625 C 12.976562 -5.625 13.984375 -6.03125 14.703125 -6.84375 C 15.421875 -7.65625 15.78125 -8.757812 15.78125 -10.15625 C 15.78125 -11.539062 15.421875 -12.640625 14.703125 -13.453125 C 13.984375 -14.265625 12.976562 -14.671875 11.6875 -14.671875 C 10.394531 -14.671875 9.382812 -14.265625 8.65625 -13.453125 C 7.925781 -12.640625 7.5625 -11.539062 7.5625 -10.15625 C 7.5625 -8.757812 7.925781 -7.65625 8.65625 -6.84375 C 9.382812 -6.03125 10.394531 -5.625 11.6875 -5.625 Z M 11.6875 -5.625 "/></g></g></g><g fill="#ffffff" fill-opacity="1"><g transform="translate(267.672117, 251.582885)"><g><path d="M 1.515625 0 L 1.515625 -20.296875 L 7.1875 -20.296875 L 14.03125 -10.78125 C 13.957031 -11.40625 13.914062 -12 13.90625 -12.5625 C 13.894531 -13.132812 13.890625 -13.691406 13.890625 -14.234375 L 13.890625 -20.296875 L 20.59375 -20.296875 L 20.59375 0 L 14.90625 0 L 8.0625 -9.515625 C 8.132812 -8.890625 8.175781 -8.289062 8.1875 -7.71875 C 8.195312 -7.15625 8.203125 -6.601562 8.203125 -6.0625 L 8.203125 0 Z M 1.515625 0 "/></g></g></g><g fill="#ffffff" fill-opacity="1"><g transform="translate(135.485905, 267.154846)"><g><path d="M 1.609375 -5.4375 L 1.609375 -3.078125 L 4.703125 -3.078125 L 4.703125 -2.53125 L 1.609375 -2.53125 L 1.609375 0 L 0.96875 0 L 0.96875 -5.984375 L 5.078125 -5.984375 L 5.078125 -5.4375 Z M 1.609375 -5.4375 "/></g></g></g><g fill="#ffffff" fill-opacity="1"><g transform="translate(143.214851, 267.154846)"><g><path d="M 5.203125 -0.546875 L 5.203125 0 L 0.96875 0 L 0.96875 -5.984375 L 5.078125 -5.984375 L 5.078125 -5.4375 L 1.609375 -5.4375 L 1.609375 -3.3125 L 4.703125 -3.3125 L 4.703125 -2.765625 L 1.609375 -2.765625 L 1.609375 -0.546875 Z M 5.203125 -0.546875 "/></g></g></g><g fill="#ffffff" fill-opacity="1"><g transform="translate(151.251591, 267.154846)"><g><path d="M 5.203125 -0.546875 L 5.203125 0 L 0.96875 0 L 0.96875 -5.984375 L 5.078125 -5.984375 L 5.078125 -5.4375 L 1.609375 -5.4375 L 1.609375 -3.3125 L 4.703125 -3.3125 L 4.703125 -2.765625 L 1.609375 -2.765625 L 1.609375 -0.546875 Z M 5.203125 -0.546875 "/></g></g></g><g fill="#ffffff" fill-opacity="1"><g transform="translate(159.28833, 267.154846)"><g><path d="M 0.96875 -5.984375 L 1.609375 -5.984375 L 1.609375 -0.546875 L 4.953125 -0.546875 L 4.953125 0 L 0.96875 0 Z M 0.96875 -5.984375 "/></g></g></g><g fill="#ffffff" fill-opacity="1"><g transform="translate(166.64109, 267.154846)"><g/></g></g><g fill="#ffffff" fill-opacity="1"><g transform="translate(171.198087, 267.154846)"><g><path d="M 2.140625 -5.4375 L 0.03125 -5.4375 L 0.03125 -5.984375 L 4.875 -5.984375 L 4.875 -5.4375 L 2.765625 -5.4375 L 2.765625 0 L 2.140625 0 Z M 2.140625 -5.4375 "/></g></g></g><g fill="#ffffff" fill-opacity="1"><g transform="translate(178.422596, 267.154846)"><g><path d="M 5.96875 -5.984375 L 5.96875 0 L 5.34375 0 L 5.34375 -2.765625 L 1.609375 -2.765625 L 1.609375 0 L 0.96875 0 L 0.96875 -5.984375 L 1.609375 -5.984375 L 1.609375 -3.3125 L 5.34375 -3.3125 L 5.34375 -5.984375 Z M 5.96875 -5.984375 "/></g></g></g><g fill="#ffffff" fill-opacity="1"><g transform="translate(187.690499, 267.154846)"><g><path d="M 5.203125 -0.546875 L 5.203125 0 L 0.96875 0 L 0.96875 -5.984375 L 5.078125 -5.984375 L 5.078125 -5.4375 L 1.609375 -5.4375 L 1.609375 -3.3125 L 4.703125 -3.3125 L 4.703125 -2.765625 L 1.609375 -2.765625 L 1.609375 -0.546875 Z M 5.203125 -0.546875 "/></g></g></g><g fill="#ffffff" fill-opacity="1"><g transform="translate(195.727238, 267.154846)"><g/></g></g><g fill="#ffffff" fill-opacity="1"><g transform="translate(200.284234, 267.154846)"><g><path d="M 7.1875 -5.984375 L 7.1875 0 L 6.578125 0 L 6.578125 -4.78125 L 4.234375 -0.765625 L 3.9375 -0.765625 L 1.578125 -4.765625 L 1.578125 0 L 0.96875 0 L 0.96875 -5.984375 L 1.5 -5.984375 L 4.09375 -1.546875 L 6.671875 -5.984375 Z M 7.1875 -5.984375 "/></g></g></g><g fill="#ffffff" fill-opacity="1"><g transform="translate(210.766196, 267.154846)"><g><path d="M 3.390625 0.046875 C 2.609375 0.046875 2 -0.171875 1.5625 -0.609375 C 1.132812 -1.054688 0.921875 -1.707031 0.921875 -2.5625 L 0.921875 -5.984375 L 1.5625 -5.984375 L 1.5625 -2.578125 C 1.5625 -1.878906 1.71875 -1.359375 2.03125 -1.015625 C 2.34375 -0.679688 2.796875 -0.515625 3.390625 -0.515625 C 3.984375 -0.515625 4.4375 -0.679688 4.75 -1.015625 C 5.0625 -1.359375 5.21875 -1.878906 5.21875 -2.578125 L 5.21875 -5.984375 L 5.84375 -5.984375 L 5.84375 -2.5625 C 5.84375 -1.707031 5.625 -1.054688 5.1875 -0.609375 C 4.757812 -0.171875 4.160156 0.046875 3.390625 0.046875 Z M 3.390625 0.046875 "/></g></g></g><g fill="#ffffff" fill-opacity="1"><g transform="translate(219.854554, 267.154846)"><g><path d="M 2.625 0.046875 C 2.175781 0.046875 1.75 -0.0195312 1.34375 -0.15625 C 0.9375 -0.300781 0.625 -0.488281 0.40625 -0.71875 L 0.65625 -1.21875 C 0.863281 -1 1.144531 -0.820312 1.5 -0.6875 C 1.863281 -0.550781 2.238281 -0.484375 2.625 -0.484375 C 3.15625 -0.484375 3.554688 -0.582031 3.828125 -0.78125 C 4.097656 -0.976562 4.234375 -1.234375 4.234375 -1.546875 C 4.234375 -1.785156 4.160156 -1.972656 4.015625 -2.109375 C 3.867188 -2.253906 3.6875 -2.363281 3.46875 -2.4375 C 3.257812 -2.519531 2.96875 -2.609375 2.59375 -2.703125 C 2.144531 -2.816406 1.785156 -2.925781 1.515625 -3.03125 C 1.253906 -3.132812 1.023438 -3.296875 0.828125 -3.515625 C 0.640625 -3.734375 0.546875 -4.023438 0.546875 -4.390625 C 0.546875 -4.691406 0.625 -4.96875 0.78125 -5.21875 C 0.945312 -5.46875 1.191406 -5.664062 1.515625 -5.8125 C 1.847656 -5.957031 2.257812 -6.03125 2.75 -6.03125 C 3.09375 -6.03125 3.425781 -5.984375 3.75 -5.890625 C 4.082031 -5.796875 4.367188 -5.664062 4.609375 -5.5 L 4.390625 -5 C 4.140625 -5.164062 3.867188 -5.289062 3.578125 -5.375 C 3.296875 -5.457031 3.019531 -5.5 2.75 -5.5 C 2.226562 -5.5 1.832031 -5.394531 1.5625 -5.1875 C 1.300781 -4.988281 1.171875 -4.726562 1.171875 -4.40625 C 1.171875 -4.164062 1.242188 -3.972656 1.390625 -3.828125 C 1.535156 -3.679688 1.71875 -3.570312 1.9375 -3.5 C 2.15625 -3.425781 2.453125 -3.34375 2.828125 -3.25 C 3.265625 -3.132812 3.617188 -3.023438 3.890625 -2.921875 C 4.160156 -2.816406 4.390625 -2.65625 4.578125 -2.4375 C 4.765625 -2.226562 4.859375 -1.941406 4.859375 -1.578125 C 4.859375 -1.273438 4.773438 -1 4.609375 -0.75 C 4.453125 -0.507812 4.203125 -0.316406 3.859375 -0.171875 C 3.523438 -0.0234375 3.113281 0.046875 2.625 0.046875 Z M 2.625 0.046875 "/></g></g></g><g fill="#ffffff" fill-opacity="1"><g transform="translate(227.429608, 267.154846)"><g><path d="M 0.96875 -5.984375 L 1.609375 -5.984375 L 1.609375 0 L 0.96875 0 Z M 0.96875 -5.984375 "/></g></g></g><g fill="#ffffff" fill-opacity="1"><g transform="translate(232.328589, 267.154846)"><g><path d="M 7 0.5 C 6.8125 0.726562 6.59375 0.898438 6.34375 1.015625 C 6.101562 1.128906 5.835938 1.1875 5.546875 1.1875 C 5.191406 1.1875 4.851562 1.097656 4.53125 0.921875 C 4.21875 0.753906 3.867188 0.460938 3.484375 0.046875 C 2.898438 0.0351562 2.378906 -0.101562 1.921875 -0.375 C 1.460938 -0.644531 1.097656 -1.003906 0.828125 -1.453125 C 0.566406 -1.910156 0.4375 -2.421875 0.4375 -2.984375 C 0.4375 -3.566406 0.570312 -4.085938 0.84375 -4.546875 C 1.113281 -5.003906 1.488281 -5.363281 1.96875 -5.625 C 2.457031 -5.894531 3 -6.03125 3.59375 -6.03125 C 4.1875 -6.03125 4.71875 -5.898438 5.1875 -5.640625 C 5.664062 -5.378906 6.039062 -5.015625 6.3125 -4.546875 C 6.582031 -4.085938 6.71875 -3.566406 6.71875 -2.984375 C 6.71875 -2.484375 6.613281 -2.023438 6.40625 -1.609375 C 6.207031 -1.191406 5.921875 -0.84375 5.546875 -0.5625 C 5.171875 -0.28125 4.738281 -0.0976562 4.25 -0.015625 C 4.695312 0.453125 5.132812 0.6875 5.5625 0.6875 C 6 0.6875 6.375 0.503906 6.6875 0.140625 Z M 1.0625 -2.984375 C 1.0625 -2.523438 1.171875 -2.101562 1.390625 -1.71875 C 1.609375 -1.34375 1.910156 -1.046875 2.296875 -0.828125 C 2.679688 -0.617188 3.113281 -0.515625 3.59375 -0.515625 C 4.0625 -0.515625 4.484375 -0.617188 4.859375 -0.828125 C 5.242188 -1.046875 5.546875 -1.34375 5.765625 -1.71875 C 5.984375 -2.101562 6.09375 -2.523438 6.09375 -2.984375 C 6.09375 -3.453125 5.984375 -3.875 5.765625 -4.25 C 5.546875 -4.632812 5.242188 -4.929688 4.859375 -5.140625 C 4.484375 -5.359375 4.0625 -5.46875 3.59375 -5.46875 C 3.113281 -5.46875 2.679688 -5.359375 2.296875 -5.140625 C 1.910156 -4.929688 1.609375 -4.632812 1.390625 -4.25 C 1.171875 -3.875 1.0625 -3.453125 1.0625 -2.984375 Z M 1.0625 -2.984375 "/></g></g></g></svg>