<svg xmlns="http://www.w3.org/2000/svg" xmlns:xlink="http://www.w3.org/1999/xlink" width="500" zoomAndPan="magnify" viewBox="0 0 375 374.999991" height="500" preserveAspectRatio="xMidYMid meet" version="1.0"><defs><clipPath id="190397a6a8"><path d="M 17.582031 37 L 89 37 L 89 318 L 17.582031 318 Z M 17.582031 37 " clip-rule="nonzero"/></clipPath><clipPath id="2ea914eeca"><path d="M 173 33 L 363.84375 33 L 363.84375 350.636719 L 173 350.636719 Z M 173 33 " clip-rule="nonzero"/></clipPath><clipPath id="7fa11079ad"><path d="M 103 4.375 L 273 4.375 L 273 347.902344 L 103 347.902344 Z M 103 4.375 " clip-rule="nonzero"/></clipPath><clipPath id="d3085416be"><path d="M 222 228 L 347 228 L 347 371 L 222 371 Z M 222 228 " clip-rule="nonzero"/></clipPath><clipPath id="d5c2adc63b"><path d="M 266.78125 225.292969 L 350.113281 338.894531 L 301.964844 374.207031 L 218.648438 260.601562 Z M 266.78125 225.292969 " clip-rule="nonzero"/></clipPath><clipPath id="ce95a370f7"><path d="M 266.78125 225.292969 L 350.113281 338.894531 L 301.964844 374.207031 L 218.648438 260.601562 Z M 266.78125 225.292969 " clip-rule="nonzero"/></clipPath><clipPath id="1f2460807d"><path d="M 266.507812 225.503906 L 350.507812 340.027344 L 302.527344 375.214844 L 218.523438 260.6875 Z M 266.507812 225.503906 " clip-rule="nonzero"/></clipPath><clipPath id="2ae1dfce48"><path d="M 266.507812 225.503906 L 349.851562 339.144531 L 302.3125 374.019531 L 218.957031 260.367188 Z M 266.507812 225.503906 " clip-rule="nonzero"/></clipPath><clipPath id="09a1e11a56"><path d="M 223 229 L 346 229 L 346 370 L 223 370 Z M 223 229 " clip-rule="nonzero"/></clipPath><clipPath id="07c7869057"><path d="M 266.78125 225.292969 L 350.113281 338.894531 L 301.964844 374.207031 L 218.648438 260.601562 Z M 266.78125 225.292969 " clip-rule="nonzero"/></clipPath><clipPath id="75883d26fd"><path d="M 266.78125 225.292969 L 350.113281 338.894531 L 301.964844 374.207031 L 218.648438 260.601562 Z M 266.78125 225.292969 " clip-rule="nonzero"/></clipPath><clipPath id="38aac8cd2e"><path d="M 266.507812 225.503906 L 349.539062 338.710938 L 301.566406 373.894531 L 218.523438 260.6875 Z M 266.507812 225.503906 " clip-rule="nonzero"/></clipPath><clipPath id="3052ad2c7b"><path d="M 266.507812 225.503906 L 349.539062 338.710938 L 301.992188 373.582031 L 218.957031 260.367188 Z M 266.507812 225.503906 " clip-rule="nonzero"/></clipPath><clipPath id="49fcaa26bf"><path d="M 223.746094 230.09375 L 345 230.09375 L 345 369 L 223.746094 369 Z M 223.746094 230.09375 " clip-rule="nonzero"/></clipPath><clipPath id="ddbc4af411"><path d="M 266.78125 225.292969 L 350.113281 338.894531 L 301.964844 374.207031 L 218.648438 260.601562 Z M 266.78125 225.292969 " clip-rule="nonzero"/></clipPath><clipPath id="b6fa584ea3"><path d="M 266.78125 225.292969 L 350.113281 338.894531 L 301.964844 374.207031 L 218.648438 260.601562 Z M 266.78125 225.292969 " clip-rule="nonzero"/></clipPath></defs><g clip-path="url(#190397a6a8)"><path fill="#ffffff" d="M 31.164062 110.121094 C 22.132812 131.476562 17.546875 154.148438 17.546875 177.519531 C 17.546875 200.875 22.132812 223.550781 31.164062 244.917969 C 39.882812 265.539062 52.371094 284.046875 68.253906 299.941406 C 74.621094 306.308594 81.425781 312.117188 88.601562 317.367188 L 88.601562 255.886719 C 71.882812 234.160156 61.921875 206.984375 61.921875 177.519531 C 61.921875 148.042969 71.882812 120.867188 88.601562 99.136719 L 88.601562 37.660156 C 81.425781 42.90625 74.621094 48.730469 68.253906 55.085938 C 52.371094 70.980469 39.882812 89.5 31.164062 110.121094 " fill-opacity="1" fill-rule="nonzero"/></g><g clip-path="url(#2ea914eeca)"><path fill="#ffffff" d="M 350.199219 110.121094 C 341.480469 89.5 329.003906 70.980469 313.109375 55.085938 C 305.101562 47.085938 296.429688 39.949219 287.152344 33.714844 L 287.152344 92.335938 C 307.238281 115.058594 319.441406 144.882812 319.441406 177.519531 C 319.441406 248.511719 261.679688 306.273438 190.6875 306.273438 C 184.964844 306.273438 179.34375 305.898438 173.824219 305.164062 L 173.824219 349.839844 C 179.394531 350.375 185.015625 350.648438 190.6875 350.648438 C 214.046875 350.648438 236.71875 346.070312 258.085938 337.03125 C 278.695312 328.3125 297.214844 315.835938 313.109375 299.941406 C 329.003906 284.046875 341.480469 265.539062 350.199219 244.917969 C 359.242188 223.550781 363.816406 200.875 363.816406 177.519531 C 363.816406 154.148438 359.242188 131.476562 350.199219 110.121094 " fill-opacity="1" fill-rule="nonzero"/></g><g clip-path="url(#7fa11079ad)"><path fill="#f68712" d="M 158.5 52.832031 C 168.796875 50.171875 179.570312 48.753906 190.6875 48.753906 C 221.621094 48.753906 250.050781 59.722656 272.277344 77.980469 L 272.277344 24.773438 C 267.664062 22.3125 262.9375 20.046875 258.085938 17.996094 C 236.71875 8.953125 214.046875 4.375 190.6875 4.375 C 167.316406 4.375 144.644531 8.953125 123.289062 17.996094 C 116.4375 20.894531 109.832031 24.203125 103.476562 27.921875 L 103.476562 327.117188 C 109.832031 330.824219 116.4375 334.144531 123.289062 337.03125 C 134.820312 341.917969 146.746094 345.476562 158.945312 347.738281 L 158.945312 302.316406 C 158.796875 302.28125 158.648438 302.230469 158.5 302.191406 L 158.5 190.714844 L 272.277344 190.714844 L 272.277344 138.714844 L 158.5 138.714844 L 158.5 52.832031 " fill-opacity="1" fill-rule="nonzero"/></g><g clip-path="url(#d3085416be)"><g clip-path="url(#d5c2adc63b)"><g clip-path="url(#ce95a370f7)"><g clip-path="url(#1f2460807d)"><g clip-path="url(#2ae1dfce48)"><path fill="#ffffff" d="M 342.910156 344.242188 C 344.75 342.902344 345.980469 340.875 346.34375 338.621094 C 346.703125 336.382812 346.15625 334.09375 344.8125 332.277344 C 330.894531 313.300781 285.460938 251.347656 271.542969 232.367188 C 270.199219 230.550781 268.1875 229.332031 265.933594 228.996094 C 263.695312 228.675781 261.394531 229.246094 259.542969 230.601562 C 250.910156 236.933594 234.542969 248.933594 225.910156 255.265625 C 224.070312 256.621094 222.824219 258.648438 222.464844 260.886719 C 222.105469 263.140625 222.664062 265.414062 223.996094 267.242188 L 297.265625 367.140625 C 298.609375 368.96875 300.621094 370.175781 302.875 370.511719 C 305.125 370.847656 307.425781 370.277344 309.265625 368.917969 C 317.898438 362.589844 334.277344 350.574219 342.910156 344.242188 " fill-opacity="1" fill-rule="evenodd"/></g></g></g></g></g><g clip-path="url(#09a1e11a56)"><g clip-path="url(#07c7869057)"><g clip-path="url(#75883d26fd)"><g clip-path="url(#38aac8cd2e)"><g clip-path="url(#3052ad2c7b)"><path fill="#ffffff" d="M 342.414062 343.570312 C 344.078125 342.351562 345.199219 340.523438 345.523438 338.511719 C 345.84375 336.484375 345.347656 334.417969 344.140625 332.765625 C 330.222656 313.785156 284.789062 251.84375 270.859375 232.867188 C 269.652344 231.222656 267.835938 230.128906 265.808594 229.820312 C 263.78125 229.519531 261.707031 230.042969 260.039062 231.261719 C 251.40625 237.59375 235.027344 249.605469 226.394531 255.9375 C 224.730469 257.15625 223.621094 258.984375 223.285156 261.011719 C 222.976562 263.039062 223.460938 265.105469 224.667969 266.746094 L 297.949219 366.65625 C 299.15625 368.296875 300.972656 369.390625 303 369.691406 C 305.039062 369.988281 307.101562 369.46875 308.769531 368.25 C 317.402344 361.917969 333.78125 349.902344 342.414062 343.570312 Z M 341.503906 342.339844 L 307.859375 367.003906 C 306.53125 367.988281 304.875 368.398438 303.246094 368.160156 C 301.628906 367.925781 300.164062 367.042969 299.203125 365.734375 C 285.273438 346.742188 239.839844 284.804688 225.921875 265.824219 C 224.964844 264.507812 224.566406 262.851562 224.828125 261.234375 C 225.089844 259.617188 225.972656 258.152344 227.304688 257.179688 C 235.933594 250.851562 252.316406 238.835938 260.945312 232.503906 C 262.277344 231.523438 263.945312 231.113281 265.5625 231.359375 C 267.191406 231.597656 268.644531 232.46875 269.605469 233.785156 C 283.535156 252.765625 328.96875 314.703125 342.886719 333.683594 C 343.855469 335.003906 344.253906 336.65625 343.980469 338.273438 C 343.71875 339.902344 342.835938 341.359375 341.503906 342.339844 " fill-opacity="1" fill-rule="evenodd"/></g></g></g></g></g><g clip-path="url(#49fcaa26bf)"><g clip-path="url(#ddbc4af411)"><g clip-path="url(#b6fa584ea3)"><path fill="#ffffff" d="M 341.953125 342.960938 C 343.457031 341.855469 344.464844 340.214844 344.75 338.398438 C 345.050781 336.570312 344.601562 334.714844 343.507812 333.238281 C 329.589844 314.257812 284.15625 252.304688 270.238281 233.324219 C 269.144531 231.847656 267.515625 230.863281 265.6875 230.589844 C 263.859375 230.316406 261.992188 230.789062 260.5 231.882812 C 251.867188 238.214844 235.488281 250.230469 226.855469 256.558594 C 225.351562 257.652344 224.355469 259.296875 224.058594 261.125 C 223.769531 262.953125 224.21875 264.804688 225.300781 266.285156 C 239.21875 285.265625 284.652344 347.203125 298.570312 366.183594 C 299.664062 367.664062 301.292969 368.660156 303.121094 368.917969 C 304.949219 369.195312 306.816406 368.734375 308.320312 367.625 C 316.953125 361.296875 333.332031 349.292969 341.953125 342.960938 " fill-opacity="1" fill-rule="evenodd"/></g></g></g></svg>